<?xml version="1.0" encoding="UTF-8" standalone="no"?>
<svg
   xmlns:dc="http://purl.org/dc/elements/1.1/"
   xmlns:cc="http://creativecommons.org/ns#"
   xmlns:rdf="http://www.w3.org/1999/02/22-rdf-syntax-ns#"
   xmlns:svg="http://www.w3.org/2000/svg"
   xmlns="http://www.w3.org/2000/svg"
   xmlns:sodipodi="http://sodipodi.sourceforge.net/DTD/sodipodi-0.dtd"
   xmlns:inkscape="http://www.inkscape.org/namespaces/inkscape"
   version="1.1"
   id="svg2"
   viewBox="0 0 499.99998 500.00001"
   height="500"
   width="500"
   inkscape:version="0.91 r13725"
   sodipodi:docname="ic_launcher.svg">
  <sodipodi:namedview
     pagecolor="#ffffff"
     bordercolor="#666666"
     borderopacity="1"
     objecttolerance="10"
     gridtolerance="10"
     guidetolerance="10"
     inkscape:pageopacity="0"
     inkscape:pageshadow="2"
     inkscape:window-width="1440"
     inkscape:window-height="847"
     id="namedview45"
     showgrid="false"
     inkscape:zoom="0.44851478"
     inkscape:cx="254.3643"
     inkscape:cy="513.36519"
     inkscape:window-x="-8"
     inkscape:window-y="-8"
     inkscape:window-maximized="1"
     inkscape:current-layer="svg2"
     units="px" />
  <defs
     id="defs4">
    <filter
       id="filter4317"
       style="color-interpolation-filters:sRGB">
      <feFlood
         id="feFlood4319"
         result="flood"
         flood-color="rgb(0,0,0)"
         flood-opacity="0.498039" />
      <feComposite
         id="feComposite4321"
         result="composite1"
         operator="in"
         in2="SourceGraphic"
         in="flood" />
      <feGaussianBlur
         id="feGaussianBlur4323"
         result="blur"
         stdDeviation="3"
         in="composite1" />
      <feOffset
         id="feOffset4325"
         result="offset"
         dy="1"
         dx="1" />
      <feComposite
         id="feComposite4327"
         result="composite2"
         operator="over"
         in2="offset"
         in="SourceGraphic" />
    </filter>
    <filter
       id="filter4329"
       style="color-interpolation-filters:sRGB">
      <feFlood
         id="feFlood4331"
         result="flood"
         flood-color="rgb(0,0,0)"
         flood-opacity="0.498039" />
      <feComposite
         id="feComposite4333"
         result="composite1"
         operator="in"
         in2="SourceGraphic"
         in="flood" />
      <feGaussianBlur
         id="feGaussianBlur4335"
         result="blur"
         stdDeviation="3"
         in="composite1" />
      <feOffset
         id="feOffset4337"
         result="offset"
         dy="1"
         dx="1" />
      <feComposite
         id="feComposite4339"
         result="composite2"
         operator="over"
         in2="offset"
         in="SourceGraphic" />
    </filter>
    <filter
       id="filter4341"
       style="color-interpolation-filters:sRGB">
      <feFlood
         id="feFlood4343"
         result="flood"
         flood-color="rgb(0,0,0)"
         flood-opacity="0.498039" />
      <feComposite
         id="feComposite4345"
         result="composite1"
         operator="in"
         in2="SourceGraphic"
         in="flood" />
      <feGaussianBlur
         id="feGaussianBlur4347"
         result="blur"
         stdDeviation="3"
         in="composite1" />
      <feOffset
         id="feOffset4349"
         result="offset"
         dy="1"
         dx="1" />
      <feComposite
         id="feComposite4351"
         result="composite2"
         operator="over"
         in2="offset"
         in="SourceGraphic" />
    </filter>
    <filter
       id="filter4353"
       style="color-interpolation-filters:sRGB">
      <feFlood
         id="feFlood4355"
         result="flood"
         flood-color="rgb(0,0,0)"
         flood-opacity="0.498039" />
      <feComposite
         id="feComposite4357"
         result="composite1"
         operator="in"
         in2="SourceGraphic"
         in="flood" />
      <feGaussianBlur
         id="feGaussianBlur4359"
         result="blur"
         stdDeviation="3"
         in="composite1" />
      <feOffset
         id="feOffset4361"
         result="offset"
         dy="1"
         dx="1" />
      <feComposite
         id="feComposite4363"
         result="composite2"
         operator="over"
         in2="offset"
         in="SourceGraphic" />
    </filter>
    <clipPath
       id="clipPath4453"
       clipPathUnits="userSpaceOnUse">
      <g
         style="fill:#bdbdbd"
         id="g4455"
         transform="matrix(1.217366,0,0,1.217366,248.7159,271.40589)">
        <path
           style="fill:#bdbdbd"
           d="m 96.988,23.089 -9.791,-9.791 c -1.353,-1.349 -3.539,-1.349 -4.892,0.004 L 34.57,61.033 17.694,44.16 c -1.353,-1.353 -3.539,-1.353 -4.892,-0.003 l -9.791,9.791 c -1.35,1.353 -1.35,3.542 0.003,4.896 l 27.862,27.861 c 1.001,1.002 2.298,2.318 3.623,2.318 1.325,0 2.763,-1.316 3.764,-2.318 L 96.985,27.984 c 1.353,-1.352 1.353,-3.543 0.003,-4.895 z"
           id="path4457"
           inkscape:connector-curvature="0" />
      </g>
    </clipPath>
  </defs>
  <metadata
     id="metadata7">
    <rdf:RDF>
      <cc:Work
         rdf:about="">
        <dc:format>image/svg+xml</dc:format>
        <dc:type
           rdf:resource="http://purl.org/dc/dcmitype/StillImage" />
        <dc:title></dc:title>
      </cc:Work>
    </rdf:RDF>
  </metadata>
  <g
     id="layer1"
     transform="matrix(3.485312,0,0,3.485312,-1845.9968,-986.0233)">
    <path
       style="fill:#3949ab;fill-opacity:1;stroke:none"
       id="path4393"
       r="66.428574"
       cy="333.07648"
       cx="127.85714"
       d=""
       inkscape:connector-curvature="0" />
    <g
       transform="translate(67.999998,0)"
       id="g4277">
      <g
         id="g4269">
        <path
           id="path4206"
           d="m 471.26172,318.77734 a 71.731873,71.731873 0 0 0 -9.61133,35.86719 71.731873,71.731873 0 0 0 9.61133,35.86524 l 62.12109,-35.86524 -62.12109,-35.86719 z"
           style="fill:#ff7043;fill-opacity:1;stroke:none"
           inkscape:connector-curvature="0" />
        <path
           id="path4210"
           d="m 533.37695,282.91016 a 71.731872,71.731872 0 0 0 -35.86523,9.61132 l 0.002,0.002 a 71.731872,71.731872 0 0 0 -26.25586,26.2539 l 62.11914,35.86524 0,-0.002 0,-71.73046 z"
           style="fill:#ffc107;fill-opacity:1;stroke:none"
           inkscape:connector-curvature="0" />
        <path
           id="path4214"
           d="m 533.375,282.9082 0,71.72852 0,0.004 0.004,-0.006 62.11718,-35.86329 a 71.731872,71.731872 0 0 0 -26.25586,-26.25586 l -0.002,0.002 A 71.731873,71.731873 0 0 0 533.375,282.9082 Z"
           style="fill:#9ccc65;fill-opacity:1;stroke:none"
           inkscape:connector-curvature="0" />
        <path
           id="path4218"
           d="m 595.50391,318.77734 -62.1211,35.86719 -0.004,0 62.12109,35.86524 a 71.731873,71.731873 0 0 0 9.61133,-35.86524 l 0.004,0 a 71.731872,71.731872 0 0 0 -9.61132,-35.86719 z"
           style="fill:#42a5f5;fill-opacity:1;stroke:none"
           inkscape:connector-curvature="0" />
        <path
           id="path4222"
           d="m 533.375,354.63281 0,0.008 -35.86328,62.11719 a 71.731873,71.731873 0 0 0 35.86523,9.60938 l 0,-0.002 a 71.731872,71.731872 0 0 0 35.86524,-9.60937 L 533.375,354.63281 Z m 0.006,0 35.86719,62.1211 a 71.731872,71.731872 0 0 0 26.25586,-26.25586 L 533.381,354.63281 Z"
           style="fill:#616161;fill-opacity:1;stroke:none"
           inkscape:connector-curvature="0" />
        <path
           transform="matrix(0.5,-0.8660254,0.8660254,0.5,0,0)"
           d="m -112.16519,639.24591 a 71.731873,71.731873 0 0 1 9.61025,-35.86593 l 62.121621,35.86593 z"
           style="fill:#ef5350;fill-opacity:1;stroke:none"
           id="path4228"
           inkscape:connector-curvature="0" />
      </g>
      <path
         d="m 482.2403,354.6383 a 51.142574,51.142574 0 0 1 51.13231,-51.14257 51.142574,51.142574 0 0 1 51.15283,51.12205 51.142574,51.142574 0 0 1 -51.11177,51.16309 51.142574,51.142574 0 0 1 -51.17335,-51.1015"
         id="path4230"
         style="fill:#e0e0e0;fill-opacity:1;stroke:none"
         inkscape:connector-curvature="0" />
      <g
         style="fill:#bdbdbd"
         id="g4232"
         transform="matrix(0.55253258,0,0,0.55253258,505.75652,328.80952)">
        <path
           style="fill:#bdbdbd"
           d="m 96.988,23.089 -9.791,-9.791 c -1.353,-1.349 -3.539,-1.349 -4.892,0.004 L 34.57,61.033 17.694,44.16 c -1.353,-1.353 -3.539,-1.353 -4.892,-0.003 l -9.791,9.791 c -1.35,1.353 -1.35,3.542 0.003,4.896 l 27.862,27.861 c 1.001,1.002 2.298,2.318 3.623,2.318 1.325,0 2.763,-1.316 3.764,-2.318 L 96.985,27.984 c 1.353,-1.352 1.353,-3.543 0.003,-4.895 z"
           id="path4234"
           inkscape:connector-curvature="0" />
      </g>
    </g>
  </g>
</svg>
